<?xml version="1.0" encoding="UTF-8"?>
<!DOCTYPE svg PUBLIC "-//W3C//DTD SVG 1.1//EN" "http://www.w3.org/Graphics/SVG/1.1/DTD/svg11.dtd">
<!-- Creator: CorelDRAW X8 -->
<svg xmlns="http://www.w3.org/2000/svg" xml:space="preserve" width="38.6157mm" height="6.0468mm" version="1.1" style="shape-rendering:geometricPrecision; text-rendering:geometricPrecision; image-rendering:optimizeQuality; fill-rule:evenodd; clip-rule:evenodd"
viewBox="0 0 14441 2261"
 xmlns:xlink="http://www.w3.org/1999/xlink">
 <defs>
  <style type="text/css">
   <![CDATA[
    .fil0 {fill:#1C1B17;fill-rule:nonzero}
   ]]>
  </style>
 </defs>
 <g id="Layer_x0020_1">
  <metadata id="CorelCorpID_0Corel-Layer"/>
  <path class="fil0" d="M1415 2017c-75,76 -163,136 -263,181 -101,42 -208,63 -323,63 -116,0 -223,-21 -324,-63 -100,-45 -188,-105 -263,-181 -76,-76 -135,-165 -179,-266 -42,-102 -63,-210 -63,-324 0,-116 21,-225 63,-327 44,-101 103,-190 179,-266 75,-76 163,-135 263,-178 101,-44 208,-66 324,-66 115,0 222,22 323,66 100,43 188,102 263,178l-266 270c-88,-89 -195,-134 -320,-134 -122,0 -228,45 -321,134 -87,88 -131,196 -131,323 0,125 44,232 131,321 44,44 94,78 148,101 54,21 112,32 173,32 127,0 234,-45 320,-133l266 269zm829 -1047c-125,0 -232,45 -320,134 -88,88 -131,196 -131,323 0,125 43,232 131,321 42,44 90,78 145,101 56,21 115,32 175,32 61,0 119,-11 173,-32 54,-23 104,-57 148,-101 87,-89 131,-196 131,-321 0,-127 -44,-235 -131,-323 -92,-89 -199,-134 -321,-134zm0 -380c116,0 223,22 324,66 100,43 188,102 263,178 76,76 134,165 176,266 44,102 66,211 66,327 0,114 -22,222 -66,324 -42,101 -100,190 -176,266 -75,76 -163,136 -263,181 -101,42 -208,63 -324,63 -115,0 -222,-21 -323,-63 -100,-45 -188,-105 -263,-181 -76,-76 -135,-165 -179,-266 -42,-102 -63,-210 -63,-324 0,-116 21,-225 63,-327 44,-101 103,-190 179,-266 75,-76 163,-135 263,-178 101,-44 208,-66 323,-66zm1379 165c59,-49 125,-89 198,-121 75,-31 160,-47 254,-47l0 380c-125,0 -232,45 -320,133 -88,94 -132,201 -132,324l0 796 -376 0 0 -796 0 -793 376 0 0 124zm1002 0c59,-49 125,-89 198,-121 76,-31 160,-47 254,-47l0 380c-125,0 -232,45 -320,133 -88,94 -132,201 -132,324l0 796 -376 0 0 -796 0 -793 376 0 0 124zm1721 862l-823 0c21,49 52,92 91,131 44,44 93,78 148,101 54,21 112,32 172,32 86,0 163,-20 230,-61l392 159c-76,89 -167,159 -273,209 -107,49 -223,73 -349,73 -115,0 -222,-21 -323,-63 -100,-45 -188,-105 -263,-181 -76,-76 -135,-165 -179,-266 -42,-102 -63,-210 -63,-324 0,-116 21,-225 63,-327 44,-101 103,-190 179,-266 75,-76 163,-135 263,-178 101,-44 208,-66 323,-66 116,0 223,22 324,66 100,43 188,102 263,178 76,76 134,165 176,266 44,102 66,211 66,327 0,68 -7,131 -22,190l-395 0zm-412 -647c-121,0 -228,45 -320,134 -39,40 -70,84 -91,133l823 0c-21,-49 -52,-93 -91,-133 -88,-89 -195,-134 -321,-134zm2371 1047c-75,76 -163,136 -264,181 -100,42 -208,63 -323,63 -115,0 -223,-21 -323,-63 -101,-45 -188,-105 -264,-181 -75,-76 -135,-165 -179,-266 -41,-102 -62,-210 -62,-324 0,-116 21,-225 62,-327 44,-101 104,-190 179,-266 76,-76 163,-135 264,-178 100,-44 208,-66 323,-66 115,0 223,22 323,66 101,43 189,102 264,178l-267 270c-88,-89 -194,-134 -320,-134 -121,0 -228,45 -320,134 -88,88 -132,196 -132,323 0,125 44,232 132,321 44,44 93,78 148,101 54,21 111,32 172,32 128,0 234,-45 320,-133l267 269zm937 203l-345 0c-71,0 -138,-14 -201,-41 -62,-28 -117,-65 -163,-111 -46,-49 -82,-105 -110,-168 -27,-64 -40,-131 -40,-203l0 -1383 376 -95 0 606 220 0 94 380 -314 0 0 492c0,40 14,74 41,101 27,28 60,41 97,41l251 0 94 381zm125 0l0 -1586 377 0 0 1586 -377 0zm0 -2220l377 0 0 381 -377 0 0 -381zm1210 1237c25,6 67,21 125,44 59,24 118,56 179,99 63,40 117,91 163,152 46,61 69,134 69,219 0,74 -12,141 -37,203 -23,61 -58,115 -104,161 -46,47 -102,83 -169,108 -67,26 -143,38 -226,38 -128,0 -247,-23 -358,-69 -109,-47 -197,-104 -264,-172l261 -263c54,66 112,108 172,127 63,19 115,28 157,28 65,0 113,-12 145,-38 31,-25 47,-56 47,-92 0,-25 -11,-47 -32,-66 -21,-19 -46,-35 -75,-48 -27,-12 -56,-22 -85,-28 -29,-9 -53,-16 -72,-23 -25,-8 -68,-23 -129,-44 -58,-21 -119,-52 -182,-92 -60,-40 -114,-91 -160,-152 -46,-61 -69,-135 -69,-222 0,-89 15,-165 44,-228 32,-66 72,-120 123,-162 50,-43 107,-73 172,-92 65,-21 132,-32 201,-32 107,0 197,13 270,38 75,25 137,53 185,83 54,36 101,76 138,120l-263 266c-42,-54 -88,-95 -138,-120 -51,-25 -104,-38 -161,-38 -43,0 -87,10 -131,32 -42,21 -63,55 -63,101 0,25 9,48 28,67 19,17 42,31 69,44 27,11 56,20 85,29 31,8 60,16 85,22zm1552 983l-345 0c-71,0 -138,-14 -201,-41 -62,-28 -117,-65 -163,-111 -46,-49 -82,-105 -110,-168 -27,-64 -40,-131 -40,-203l0 -1383 376 -95 0 606 220 0 94 380 -314 0 0 492c0,40 14,74 41,101 27,28 60,41 97,41l251 0 94 381zm1637 -1589l0 1589 -377 0 0 -793c0,-127 -44,-235 -131,-323 -88,-89 -195,-134 -321,-134 -60,0 -119,12 -175,35 -55,24 -103,56 -145,99 -88,88 -131,196 -131,323 0,125 43,232 131,321 42,44 90,78 145,101 56,21 115,32 175,32 63,0 120,-11 170,-32l135 339c-96,49 -208,73 -336,73 -115,0 -222,-21 -320,-63 -96,-45 -180,-105 -251,-181 -71,-76 -127,-165 -166,-266 -40,-102 -60,-210 -60,-324 0,-116 20,-225 60,-327 39,-101 95,-190 166,-266 71,-76 155,-135 251,-178 98,-44 205,-66 320,-66 103,0 194,16 273,47 80,32 150,72 210,121l0 -127 377 0zm675 1589l-377 0 0 -381 377 0 0 381z"/>
 </g>
</svg>
