<?xml version="1.0" encoding="UTF-8"?>
<!DOCTYPE svg PUBLIC "-//W3C//DTD SVG 1.1//EN" "http://www.w3.org/Graphics/SVG/1.1/DTD/svg11.dtd">
<!-- Creator: CorelDRAW X8 -->
<svg xmlns="http://www.w3.org/2000/svg" xml:space="preserve" width="25.3992mm" height="25.3992mm" version="1.1" style="shape-rendering:geometricPrecision; text-rendering:geometricPrecision; image-rendering:optimizeQuality; fill-rule:evenodd; clip-rule:evenodd"
viewBox="0 0 325 325"
 xmlns:xlink="http://www.w3.org/1999/xlink">
 <defs>
  <style type="text/css">
   <![CDATA[
    .fil1 {fill:black;fill-rule:nonzero}
    .fil0 {fill:white;fill-rule:nonzero}
   ]]>
  </style>
 </defs>
 <g id="Layer_x0020_1">
  <metadata id="CorelCorpID_0Corel-Layer"/>
  <g id="_1391717537088">
   <path class="fil0" d="M245 0l-165 0c-44,0 -80,36 -80,81l0 163c0,45 36,81 80,81l165 0c44,0 80,-36 80,-81l0 -163c0,-45 -36,-81 -80,-81z"/>
   <path class="fil1" d="M235 162c0,10 0,20 0,30 0,2 0,2 -3,2 -2,0 -5,0 -8,0 -2,0 -2,0 -2,-2 0,-10 0,-19 0,-29 0,-2 0,-3 -1,-5 0,-1 0,-2 -1,-3 -1,0 -2,-1 -3,-1 -4,0 -8,1 -11,3 0,0 0,1 0,2 0,8 0,16 0,24 0,3 0,7 0,10 0,1 -1,2 -2,2 -3,-1 -6,0 -9,0 -2,0 -3,-1 -3,-3 0,-15 0,-31 0,-46 0,-2 1,-2 3,-2 2,0 5,0 8,0 1,0 2,0 2,2 0,0 0,1 0,2 1,0 1,-1 2,-1 2,-2 5,-3 8,-4 3,0 6,0 9,0 3,1 5,2 7,4 2,2 3,4 3,7 1,2 1,5 1,8l0 0zm54 -22l-1 2c0,0 0,1 0,1 0,0 0,-1 -1,-1l0 -2 -1 0 0 4 0 0 1 -2c0,0 0,-1 0,-1 0,0 0,1 0,1l1 2 0 0 1 -2c0,-1 0,-1 0,-1 0,0 0,1 0,1l0 2 1 0 -1 -4 0 0 0 0zm-137 18c0,12 0,23 0,34 0,2 -1,3 -2,3 -3,0 -5,0 -8,0 -2,0 -2,-1 -3,-3 0,0 0,0 0,-1 -1,1 -2,2 -4,2 -4,3 -9,3 -14,1 -2,0 -4,-1 -6,-3 -1,-1 -2,-3 -2,-6 -1,-3 -1,-6 -1,-9 1,-3 2,-5 4,-6 1,-2 3,-3 5,-4 5,-1 10,-1 14,-1 4,0 4,0 4,-4 0,-1 0,-1 -1,-2 0,-2 0,-3 -1,-4 -1,0 -3,-1 -4,-1 -5,0 -10,0 -15,1 -2,0 -3,0 -3,-3 0,-2 0,-3 0,-5 0,-1 0,-1 1,-1 0,-1 0,-1 1,-1 7,-2 15,-2 23,-1 3,1 6,2 9,5 2,3 3,6 3,9l0 0zm-13 23c0,-1 0,-2 0,-3 0,-2 0,-3 0,-5 0,0 -1,-1 -1,-1 -3,0 -6,0 -9,1 -1,0 -2,0 -2,1 -1,1 -1,1 -2,2 0,2 0,4 0,6 0,1 1,1 1,2 1,1 2,1 3,1 3,1 6,0 8,-1 1,0 1,0 2,-1 0,0 0,-1 0,-2l0 0zm142 -20c0,11 0,21 0,31 0,2 0,2 -2,2 -3,0 -5,0 -8,0 -2,0 -2,0 -2,-2 0,0 0,0 0,-1 0,0 0,0 0,0 -1,0 -1,0 -1,0 -4,3 -8,4 -12,4 -1,1 -3,0 -5,0 -2,-1 -4,-2 -5,-3 -1,-1 -2,-3 -3,-4 -1,-2 -1,-4 -1,-6 -1,-2 -1,-4 0,-6 0,-2 1,-4 2,-6 2,-2 4,-3 6,-3 3,-1 7,-2 10,-2 3,0 5,0 7,0 1,0 1,-1 1,-2 0,-1 0,-2 0,-4 0,-1 0,-1 -1,-2 0,-1 0,-1 -1,-2 0,0 -1,0 -2,-1 0,0 -1,0 -2,0 -5,0 -10,0 -15,1 -2,0 -2,0 -2,-3 0,-2 0,-3 0,-5 0,0 0,0 0,-1 0,0 0,0 0,0 0,-1 0,-1 1,-1 0,0 0,0 0,0 6,-2 12,-2 18,-2 2,0 5,1 7,2 3,0 5,2 7,4 2,2 3,5 3,8 0,1 0,3 0,4l0 0zm-13 21c0,-1 0,-3 0,-4 0,-1 0,-3 0,-4 0,-1 0,-2 -1,-2 -2,0 -4,0 -5,0 -7,1 -8,3 -8,8 0,1 0,1 0,2 0,1 1,1 1,2 0,0 1,0 1,1 1,0 1,0 2,0 3,1 6,0 9,-1 1,0 1,-1 1,-1 0,0 0,-1 0,-1l0 0zm-165 -56l-8 0c-3,0 -3,0 -3,3l0 63c0,2 1,2 2,2 3,0 6,0 9,0 2,0 2,0 2,-2l0 -55c0,-3 0,-6 0,-9 0,-2 0,-2 -2,-2zm180 15l1 0 0 3 1 0 0 -3 1 0 0 -1 -3 0 0 1zm-98 2c-4,0 -7,1 -10,4 -1,0 -1,0 -2,1 0,-1 0,-1 0,-2 0,-2 0,-2 -2,-2 -3,0 -5,0 -8,0 -2,0 -3,0 -3,3l0 20c0,8 0,17 0,25 0,2 1,3 3,3 2,0 5,0 8,0 2,0 3,-1 3,-3 0,-11 0,-22 0,-33 -1,-1 0,-1 0,-2 0,0 0,0 1,0 3,-2 6,-3 10,-3 1,0 2,0 2,-2 0,-2 0,-5 0,-7 0,-1 -1,-2 -2,-2l0 0zm-137 -17c-3,0 -5,0 -8,0 -1,0 -1,0 -2,0 0,1 -1,1 -1,1 -1,1 -1,1 -1,2 0,0 0,1 0,2l0 61c0,2 0,2 2,2 2,0 5,0 8,0 0,0 1,0 1,0 1,0 1,0 2,-1 0,0 0,-1 1,-1 0,-1 0,-1 0,-2l0 -62c0,-1 -1,-2 -2,-2zm29 47c-6,-6 -13,-10 -20,-10 -3,0 -3,0 -3,1 0,1 0,2 0,3 1,7 5,14 10,19 5,5 12,8 19,8 2,1 3,0 2,-1 0,-8 -3,-15 -8,-20l0 0zm7 -47c-1,0 -2,0 -2,0 -8,2 -14,5 -19,10 -5,6 -8,13 -9,20 0,2 0,2 2,2 3,0 5,-1 8,-2 6,-2 11,-6 15,-11 4,-5 6,-11 6,-17 1,-2 0,-2 -2,-2l1 0z"/>
  </g>
 </g>
</svg>
