<?xml version="1.0" encoding="UTF-8"?>
<!DOCTYPE svg PUBLIC "-//W3C//DTD SVG 1.1//EN" "http://www.w3.org/Graphics/SVG/1.1/DTD/svg11.dtd">
<!-- Creator: CorelDRAW X8 -->
<svg xmlns="http://www.w3.org/2000/svg" xml:space="preserve" width="25.3996mm" height="25.3996mm" version="1.1" style="shape-rendering:geometricPrecision; text-rendering:geometricPrecision; image-rendering:optimizeQuality; fill-rule:evenodd; clip-rule:evenodd"
viewBox="0 0 213 213"
 xmlns:xlink="http://www.w3.org/1999/xlink">
 <defs>
  <style type="text/css">
   <![CDATA[
    .fil1 {fill:black;fill-rule:nonzero}
    .fil0 {fill:white;fill-rule:nonzero}
   ]]>
  </style>
 </defs>
 <g id="Layer_x0020_1">
  <metadata id="CorelCorpID_0Corel-Layer"/>
  <g id="_1391229607584">
   <path class="fil0" d="M160 0l-107 0c-29,0 -53,24 -53,53l0 107c0,29 24,53 53,53l107 0c29,0 53,-24 53,-53l0 -107c0,-29 -24,-53 -53,-53z"/>
   <path class="fil1" d="M98 91c0,0 -1,1 -2,0 0,0 -1,0 -1,-1l0 0 -8 -18c0,0 0,0 0,0 0,0 0,-1 0,-1 0,0 0,0 0,0 1,-1 1,-1 1,-1 0,0 1,1 1,1l9 6c1,1 2,1 2,1 1,0 1,0 2,0l43 -20c-4,-4 -10,-8 -16,-11 -6,-2 -12,-4 -19,-4 -23,0 -43,16 -43,36 0,5 2,11 4,15 3,5 7,9 11,12 1,0 1,1 1,1 0,0 0,1 0,1 0,1 0,1 0,1l-2 7c0,1 0,1 0,1 0,1 0,1 0,1 1,1 1,1 1,1 1,0 1,0 1,0l10 -6c0,0 1,0 2,0 0,0 1,0 1,0 5,1 9,2 14,2 24,0 43,-16 43,-36 0,-6 -2,-12 -5,-17l-49 29 -1 0z"/>
   <path class="fil1" d="M45 148l0 2c-1,1 -1,3 -2,4 0,-2 -1,-4 -1,-6l-4 -15 0 0 -3 0 -4 15c-1,2 -2,4 -2,6 0,-1 -1,-3 -1,-5l-4 -16 0 0 -3 0 7 26 0 0 2 0 5 -15c0,-2 1,-4 1,-6 1,2 1,4 2,6l4 15 0 0 2 0 8 -26 0 0 -3 0 -4 15z"/>
   <path class="fil1" d="M56 148c0,-2 0,-3 1,-4 1,-1 3,-2 4,-2 1,0 1,0 2,1 1,0 1,0 2,1 0,1 1,2 1,4l-10 0zm5 -8c-5,0 -8,4 -8,10 0,1 0,3 0,4 1,1 1,2 2,3 1,1 2,2 3,2 1,1 2,1 4,1 2,0 4,-1 6,-1l0 -1 -1 -2 0 0c-2,1 -4,1 -5,1 -4,0 -6,-2 -7,-7l14 0 0 0c0,-1 0,-1 0,-1 0,-2 -1,-4 -1,-6 -1,-1 -2,-2 -3,-2 -1,-1 -2,-1 -4,-1l0 0z"/>
   <path class="fil1" d="M90 156c-1,1 -3,1 -5,1 -1,0 -3,0 -4,0 -2,-1 -3,-2 -4,-3 -1,-1 -1,-2 -2,-3 0,-2 -1,-3 0,-5 -1,-1 0,-3 0,-4 1,-1 1,-3 2,-4 1,-1 3,-2 4,-2 1,-1 3,-1 4,-1 2,0 4,0 5,1l0 0 2 -2 -1 0c-2,-1 -4,-2 -6,-1 -2,-1 -3,0 -5,0 -2,1 -3,2 -5,3 -1,2 -2,3 -2,5 -1,2 -1,4 -1,5 0,2 0,4 0,6 1,1 2,3 3,4 1,1 3,2 4,3 2,1 4,1 5,1 3,0 5,-1 7,-1l1 -1 -1 -2 -1 0z"/>
   <path class="fil1" d="M103 140c-1,0 -2,0 -3,1 -1,0 -2,1 -2,2l0 -10 -3 0 0 26 3 0 0 -11c0,-1 0,-1 0,-2 0,-1 1,-2 2,-2 1,-1 2,-1 3,-2 4,0 4,4 4,6l0 11 3 0 0 -11c0,-8 -5,-8 -7,-8l0 0z"/>
   <path class="fil1" d="M135 136l-2 0 0 4 -4 0 0 3 4 0 0 11c-1,1 0,3 1,4 0,1 1,1 1,2 1,0 2,0 2,0 1,0 2,0 3,-1l0 0 -1 -2 0 0c0,0 -1,0 -2,0 -1,0 -2,-1 -2,-3l0 -11 6 0 0 -3 -6 0 0 -4z"/>
   <path class="fil1" d="M156 135c1,0 2,0 3,0 4,0 6,2 6,6 0,3 -2,5 -6,5 -1,0 -2,0 -3,0l0 -11zm3 -2c-2,0 -4,0 -6,0l0 0 0 26 3 0 0 -10c1,0 1,0 2,0 2,0 3,0 5,-1 1,0 2,-1 3,-2 2,-2 2,-4 2,-6 0,-1 0,-2 0,-2 -1,-1 -1,-2 -2,-3 -2,-2 -5,-2 -7,-2l0 0z"/>
   <path class="fil1" d="M199 140l-4 12c-1,1 -1,2 -1,3 -1,-1 -1,-2 -1,-3l-5 -11 0 -1 -3 0 7 18c0,0 0,0 0,0 0,1 0,1 0,1 -1,2 -2,3 -3,4 -1,1 -2,2 -3,2l-1 1 2 2c1,-1 2,-1 3,-2 3,-3 5,-7 6,-11l6 -14 0 -1 -3 0z"/>
   <path class="fil1" d="M117 152c2,-2 5,-3 7,-2l0 0 0 3c0,0 0,1 0,1 0,1 -1,2 -2,3 0,0 -2,0 -3,0 0,0 0,0 -1,0 0,0 -1,0 -1,-1 0,0 0,0 -1,-1 0,0 0,0 0,-1 0,0 0,-1 1,-1 0,-1 0,-1 0,-1l0 0zm10 3l0 -7c0,-5 -2,-8 -6,-8 -2,0 -4,0 -6,2l0 0 1 2 0 0c1,-1 3,-2 4,-2l0 0c1,0 1,0 2,1 0,0 1,0 1,0 1,1 1,2 1,2 0,1 1,2 0,2 -3,0 -6,1 -9,3 0,1 -1,1 -1,2 -1,1 -1,2 -1,2 0,1 1,2 1,3 0,0 1,1 1,1 1,1 1,1 2,2 1,0 1,0 2,0 1,0 2,0 3,-1 1,0 2,-1 3,-1l0 1 3 0 0 0c-1,-2 -1,-3 -1,-4l0 0z"/>
   <path class="fil1" d="M180 153c0,0 0,1 0,1 -1,1 -1,2 -2,3 -1,0 -2,0 -3,0 -1,0 -1,0 -1,0 -1,0 -1,0 -1,-1 -1,0 -1,0 -1,-1 0,0 0,0 0,-1 0,0 0,-1 0,-1 0,-1 0,-1 1,-1 2,-2 4,-3 7,-2l0 0 0 3zm3 2l0 -7c0,-5 -3,-8 -7,-8 -2,0 -4,0 -5,1l-1 1 1 2 1 -1c1,0 2,-1 4,-1l0 0c0,0 1,0 1,1 1,0 1,0 2,0 0,1 0,2 1,2 0,1 0,2 0,2 -3,0 -7,1 -9,3 -1,1 -2,1 -2,2 0,1 0,2 0,2 0,1 0,2 0,3 0,0 1,1 1,1 1,1 2,1 2,2 1,0 2,0 3,0 1,0 2,0 3,-1 1,0 1,-1 2,-1l0 1 3 0 0 0c0,-2 0,-3 0,-4l0 0z"/>
  </g>
 </g>
</svg>
