<?xml version="1.0" encoding="UTF-8"?>
<!DOCTYPE svg PUBLIC "-//W3C//DTD SVG 1.1//EN" "http://www.w3.org/Graphics/SVG/1.1/DTD/svg11.dtd">
<!-- Creator: CorelDRAW X8 -->
<svg xmlns="http://www.w3.org/2000/svg" xml:space="preserve" width="25.3998mm" height="25.3992mm" version="1.1" style="shape-rendering:geometricPrecision; text-rendering:geometricPrecision; image-rendering:optimizeQuality; fill-rule:evenodd; clip-rule:evenodd"
viewBox="0 0 258 258"
 xmlns:xlink="http://www.w3.org/1999/xlink">
 <defs>
  <style type="text/css">
   <![CDATA[
    .fil1 {fill:black;fill-rule:nonzero}
    .fil0 {fill:white;fill-rule:nonzero}
   ]]>
  </style>
 </defs>
 <g id="Layer_x0020_1">
  <metadata id="CorelCorpID_0Corel-Layer"/>
  <g id="_1391717537504">
   <path class="fil0" d="M193 0l-129 0c-35,0 -64,29 -64,64l0 129c0,36 29,65 64,65l129 0c36,0 65,-29 65,-65l0 -129c0,-35 -29,-64 -65,-64z"/>
   <path class="fil1" d="M203 170c1,1 2,3 1,5l0 11 -2 0 0 -11c0,-1 0,-2 -1,-3 0,-1 -1,-1 -1,-1 -1,0 -1,0 -2,0 0,0 -1,0 -2,0 0,0 -1,1 -1,1 -1,1 -2,3 -2,4l0 10 -2 0 0 -11c0,-1 0,-2 -1,-3 0,-1 -1,-1 -1,-1 -1,0 -1,0 -2,0 0,0 -1,0 -2,0 0,0 -1,1 -1,1 -1,2 -2,3 -2,5l0 9 -2 0 0 -17 2 0 0 2 1 0c0,-1 1,-1 2,-2 1,0 2,-1 3,-1 1,0 2,1 3,1 1,1 1,1 2,2l0 0c1,-1 1,-1 2,-2 1,0 2,-1 4,-1 0,0 1,0 2,1 1,0 1,0 2,1l0 0zm-109 -64l0 0 0 0zm15 65c1,2 2,4 2,6 0,3 -1,5 -2,7 -1,1 -1,1 -2,2 -1,0 -2,0 -3,0 -1,0 -2,0 -3,0 -1,-1 -2,-1 -3,-2l0 0c0,1 0,2 0,3l0 7 -2 0 0 -25 2 0 0 2 0 0c1,-1 2,-1 3,-2 1,0 2,-1 3,-1 1,0 2,1 3,1 1,0 1,1 2,2l0 0zm-1 6c0,-1 0,-3 -1,-5 0,0 -1,-1 -2,-1 0,0 -1,0 -2,0 0,0 -1,0 -2,0 0,0 -1,1 -1,1 -1,2 -2,3 -2,5l0 0c0,2 1,4 2,6 0,0 1,1 1,1 1,0 2,0 2,0 1,0 2,0 2,0 1,-1 2,-1 2,-2 1,-1 1,-3 1,-5l0 0zm134 -45c1,1 -4,6 -4,6 -6,7 -8,9 -8,9 -1,1 -2,2 -4,3 -1,0 -3,0 -4,1 -85,8 -123,-5 -123,-5 -7,-2 -14,-5 -21,-9 -2,2 -3,2 -3,2 -8,7 -17,11 -27,12l-1 0c-1,0 -1,0 -2,0 1,0 1,0 1,0l2 0 -1 0c-6,0 -11,-2 -15,-4 -2,-2 -4,-4 -5,-6 -1,-2 -1,-4 -1,-7 0,-2 1,-4 2,-6 1,-2 2,-4 4,-5 4,-3 9,-4 14,-4 8,1 16,4 24,7 1,0 2,1 4,1 2,-2 3,-5 5,-8 1,-3 3,-6 4,-9l-35 0 0 -4 16 0 0 -9 -22 0 0 -3 22 0 0 -8c0,-1 3,-1 3,-1l3 -1 6 0 0 10 23 0 0 3 -23 0 0 9 18 0 0 3c-1,3 -2,6 -3,8 -2,5 -5,10 -8,14 8,2 15,4 15,4 4,1 7,2 11,3l0 -34c0,0 -4,3 -8,4l-2 -2c3,-2 6,-5 8,-7 0,0 8,-8 8,-13 0,0 0,-1 3,-2l2 0 5 0 0 2 -1 5c-1,2 -2,4 -4,5l0 43c8,1 17,1 24,1l0 -39 -22 0 0 -4 22 0 0 -11c0,-1 3,-2 3,-2l2 0 7 0 0 13 6 0 0 5 -6 0 0 38c8,0 13,0 13,0 7,0 14,-1 20,-1l0 -20 -15 0 0 -4 15 0 0 -10 -23 0 0 -15c0,-1 6,-2 6,-2l5 0 0 3 12 -1 0 -4c0,-1 3,-2 3,-2l3 0 6 0 0 6 18 -1c1,0 1,0 2,0 0,1 1,1 2,1 0,1 0,1 1,2 0,1 0,1 0,2l-1 7c-1,2 -2,2 -2,2l-1 0 0 2 -19 0 0 10 16 0 0 4 -16 0 0 19c13,-1 25,-3 38,-6l3 0zm-199 18c-3,0 -6,-1 -8,-3 0,0 -1,0 -1,0 0,0 1,0 1,0 2,2 5,3 8,3l0 0zm26 -17l-9 -5 -7 -3c-3,-1 -6,-1 -9,-1 0,0 0,0 0,0 -11,3 -11,10 -11,10 0,2 0,4 1,5 1,2 2,3 4,4 3,2 6,3 9,3 9,0 21,-12 21,-12 0,0 1,-1 1,-1zm144 -32l1 -6c0,0 0,-1 0,-1 0,0 0,0 0,0 -1,0 -1,-1 -1,-1 0,0 0,0 -1,0l-11 1 -12 0 0 0 -12 0 0 7 36 0zm-89 69c1,0 1,1 2,2 0,1 0,1 0,2l0 12 -2 0 -1 -2 0 0c0,1 -1,1 -2,2 -1,0 -2,0 -4,0 -1,0 -2,0 -4,-1 0,0 0,-1 -1,-2 0,0 0,-1 0,-2 0,-3 3,-5 8,-5l3 0 0 -1c0,-1 0,-3 -1,-3 0,-1 0,-1 -1,-1 0,0 -1,0 -1,0 -2,0 -4,0 -5,1l-1 -2c1,-1 2,-1 3,-1 1,0 2,-1 3,-1 1,0 3,1 4,2zm-1 8l-2 0c-2,0 -3,0 -5,1 0,0 -1,0 -1,1 0,0 0,1 0,1 0,1 0,1 0,1 0,1 0,1 1,1 0,1 1,1 2,1 1,0 3,0 4,-1 0,-1 1,-1 1,-2 0,-1 0,-1 0,-2l0 -1 0 0zm52 -7c2,2 2,4 2,6 0,3 0,5 -2,7 0,1 -1,1 -2,2 -1,0 -2,0 -4,0 -1,0 -2,0 -4,-1 -1,0 -2,-2 -2,-3 -1,-1 -1,-3 -1,-5 -1,-2 0,-4 2,-6 0,-1 1,-2 2,-2 1,0 2,-1 4,-1 1,0 2,1 3,1 1,0 2,1 2,2l0 0zm0 6c0,-1 -1,-3 -2,-5 0,0 -1,-1 -1,-1 -1,0 -2,0 -3,0 0,0 -1,0 -2,0 0,0 -1,1 -1,1 -1,2 -2,4 -2,5 0,2 1,4 2,5 0,1 1,1 1,2 1,0 2,0 3,0 0,0 1,0 2,0 0,-1 1,-1 1,-2 1,-1 2,-3 2,-5l0 0zm-30 5c-1,0 -1,0 -1,0 0,0 -1,1 -1,1 0,0 0,1 0,1 0,1 0,1 0,1 0,1 0,1 0,1 1,0 1,0 2,0 0,0 0,0 0,0 1,0 1,0 1,0 0,-1 0,-1 0,-2 0,0 0,-1 0,-1 0,0 0,-1 -1,-1 0,0 0,0 0,0l0 0zm11 -11c1,0 2,0 2,0 1,0 2,0 2,1l1 -3c-1,0 -1,0 -2,0 -1,0 -2,-1 -3,-1 -1,0 -2,1 -3,1 -1,0 -2,1 -2,2 -2,2 -3,4 -3,7 0,2 1,4 3,6 0,1 1,1 2,2 1,0 2,0 3,0 2,0 3,0 5,-1l0 -2c-2,1 -3,1 -5,1 0,0 -1,0 -2,0 -1,-1 -1,-1 -2,-2 0,-1 -1,-3 -1,-5 0,-4 2,-6 5,-6l0 0zm-24 -48c0,0 0,1 1,1 0,0 0,0 0,0 1,0 1,0 1,0 0,0 0,-1 1,-1l4 -4 3 -4c1,0 1,0 1,0 0,-1 0,-1 0,-1 0,0 0,-1 0,-1 0,0 0,0 -1,0l-3 -5 -4 -3c-1,-1 -1,-1 -1,-1 0,0 0,0 -1,0 0,0 0,0 0,0 -1,0 -1,0 -1,1l-4 3 -4 5c0,0 0,0 0,1 0,0 0,1 0,1l4 4 4 4zm86 0l-3 -3c-1,0 -1,0 -1,0 0,0 0,0 0,0 -1,0 -1,0 -1,0 0,0 0,0 0,0l-4 3 -2 3c-1,1 -1,1 -1,1 0,1 0,1 1,1l2 4 4 2c0,1 0,1 0,1 0,0 0,0 1,0 0,0 0,0 0,0 0,0 0,0 1,-1l3 -2 3 -4c0,0 0,0 0,-1 0,0 0,0 0,-1l-3 -3zm-144 40l9 23 -2 0 -3 -7 -9 0 -3 7 -3 0 9 -23 2 0zm3 13l-3 -7c0,-1 0,-2 -1,-3 0,1 0,2 -1,3l-3 7 8 0zm13 10l2 0 0 -17 -2 0 0 17zm45 -5c0,1 0,2 0,2l-1 0c0,-1 0,-3 -1,-4l-4 -10 -3 0 7 17 -1 3c0,0 0,1 -1,2 -1,0 -2,1 -3,1 0,0 -1,0 -2,-1l0 3c1,0 2,0 3,0 1,0 2,-1 3,-1 2,-2 3,-3 3,-5l8 -19 -3 0c-3,6 -4,10 -5,12l0 0zm94 -92l1 0 0 -4 2 0 0 -1 -4 0 0 1 1 0 0 4 0 0zm-145 97l3 0 0 -25 -3 0 0 25zm149 -101l2 4 0 0 2 -4 0 4 0 0 0 -5 -1 0 -1 4 -2 -4 -1 0 0 5 1 0 0 -4 0 0zm-142 77c0,0 0,0 0,0 -1,0 -1,1 -1,1 0,0 0,0 0,0 0,1 0,1 0,1 0,0 0,1 0,1 0,0 0,0 0,0 0,1 1,1 1,1 1,0 1,0 1,-1 1,0 1,0 1,-1 0,0 0,-1 -1,-1 0,0 0,0 0,-1 0,0 -1,0 -1,0z"/>
  </g>
 </g>
</svg>
