<?xml version="1.0" encoding="UTF-8"?>
<!DOCTYPE svg PUBLIC "-//W3C//DTD SVG 1.1//EN" "http://www.w3.org/Graphics/SVG/1.1/DTD/svg11.dtd">
<!-- Creator: CorelDRAW X8 -->
<svg xmlns="http://www.w3.org/2000/svg" xml:space="preserve" width="26.3618mm" height="26.3611mm" version="1.1" style="shape-rendering:geometricPrecision; text-rendering:geometricPrecision; image-rendering:optimizeQuality; fill-rule:evenodd; clip-rule:evenodd"
viewBox="0 0 3337 3337"
 xmlns:xlink="http://www.w3.org/1999/xlink">
 <defs>
  <style type="text/css">
   <![CDATA[
    .fil1 {fill:black;fill-rule:nonzero}
    .fil0 {fill:white;fill-rule:nonzero}
   ]]>
  </style>
 </defs>
 <g id="Layer_x0020_1">
  <metadata id="CorelCorpID_0Corel-Layer"/>
  <g id="_1391389881136">
   <path class="fil0" d="M2503 0l-1669 0c-460,0 -834,374 -834,834l0 1669c0,461 374,834 834,834l1669 0c461,0 834,-373 834,-834l0 -1669c0,-460 -373,-834 -834,-834z"/>
   <path class="fil1" d="M2870 1646c0,-232 -66,-459 -191,-654 -125,-195 -303,-350 -514,-447 -210,-97 -444,-132 -674,-100 -229,32 -445,129 -621,279 -176,151 -305,348 -372,570 -68,222 -70,458 -7,681 63,223 188,423 362,577 173,154 386,255 615,291l0 -847 -308 0 0 -350 308 0 0 -267c0,-304 181,-472 458,-472 91,1 182,9 271,24l0 298 -153 0c-26,-4 -52,-1 -77,7 -25,8 -48,22 -67,40 -19,18 -33,40 -43,65 -9,24 -12,51 -10,77l0 228 336 0 -54 350 -282 0 0 847c285,-45 545,-190 733,-410 187,-219 290,-499 290,-787l0 0z"/>
  </g>
 </g>
</svg>
