<?xml version="1.0" encoding="UTF-8"?>
<!DOCTYPE svg PUBLIC "-//W3C//DTD SVG 1.1//EN" "http://www.w3.org/Graphics/SVG/1.1/DTD/svg11.dtd">
<!-- Creator: CorelDRAW X8 -->
<svg xmlns="http://www.w3.org/2000/svg" xml:space="preserve" width="25.3998mm" height="25.3992mm" version="1.1" style="shape-rendering:geometricPrecision; text-rendering:geometricPrecision; image-rendering:optimizeQuality; fill-rule:evenodd; clip-rule:evenodd"
viewBox="0 0 440 440"
 xmlns:xlink="http://www.w3.org/1999/xlink">
 <defs>
  <style type="text/css">
   <![CDATA[
    .fil1 {fill:black;fill-rule:nonzero}
    .fil0 {fill:white;fill-rule:nonzero}
   ]]>
  </style>
 </defs>
 <g id="Layer_x0020_1">
  <metadata id="CorelCorpID_0Corel-Layer"/>
  <g id="_1391602189072">
   <path class="fil0" d="M330 0l-220 0c-61,0 -110,49 -110,110l0 220c0,61 49,110 110,110l220 0c61,0 110,-49 110,-110l0 -220c0,-61 -49,-110 -110,-110z"/>
   <path class="fil1" d="M102 214c-2,-2 -4,-4 -6,-6 -3,-1 -6,-2 -8,-2 -5,0 -10,2 -13,6 -4,4 -5,9 -5,14 0,5 1,10 5,14 3,3 8,6 13,6 2,0 5,-1 8,-2 2,-2 4,-4 6,-6l0 1c0,1 0,1 0,2 0,1 0,3 -1,5 0,1 -1,3 -2,4 -7,7 -23,-1 -23,-1 0,0 0,2 -1,11 5,2 11,3 16,3 5,0 11,-2 16,-4 2,-2 4,-4 5,-6 1,-4 2,-9 2,-13l0 -33 -12 0 0 7zm-9 22c-2,-1 -4,-2 -6,-4 -2,-1 -2,-4 -2,-6 0,-2 0,-5 2,-7 2,-1 4,-3 6,-3 2,0 5,2 6,3 2,2 3,5 3,7 0,2 -1,5 -3,6 -1,2 -4,3 -6,4l0 0z"/>
   <polygon class="fil1" points="136,207 123,207 123,246 136,246 "/>
   <polygon class="fil1" points="136,191 123,191 123,201 136,201 "/>
   <path class="fil1" d="M157 214l0 -7 -12 0 0 39 12 0 2 0 0 -13c-1,-5 0,-9 3,-13 0,0 0,0 0,0 0,0 0,0 0,-1 2,-1 4,-1 5,-2 2,0 4,0 6,1l0 -11c-3,-1 -6,-1 -9,0 -3,2 -6,4 -7,7l0 0z"/>
   <path class="fil1" d="M197 206c-3,0 -6,0 -9,1 -3,1 -5,2 -7,4 -2,2 -4,5 -5,7 -2,3 -2,6 -2,9 0,2 0,5 2,8 1,3 3,5 5,7 2,2 4,3 7,4 3,1 6,2 9,1 2,1 5,0 8,-1 3,-1 5,-2 8,-4 2,-2 3,-4 5,-7 1,-3 1,-6 1,-8 0,-3 0,-6 -1,-9 -2,-2 -3,-5 -5,-7 -3,-2 -5,-3 -8,-4 -3,-1 -6,-1 -8,-1l0 0zm0 32c-3,-1 -5,-2 -7,-4 -1,-2 -2,-5 -2,-7 0,-3 1,-5 2,-8 2,-2 4,-3 7,-4 2,1 4,2 6,4 2,3 2,5 2,8 0,2 0,5 -2,7 -2,2 -4,3 -6,4l0 0z"/>
   <path class="fil1" d="M303 231c-3,3 -1,9 7,6 4,-1 5,-8 5,-8 0,0 -10,-2 -12,2z"/>
   <path class="fil1" d="M261 237c5,0 9,-5 9,-10 0,-6 -4,-11 -9,-11 -4,0 -8,5 -8,11 0,5 4,10 8,10z"/>
   <path class="fil1" d="M39 111l0 227 363 0 0 -227 -363 0zm188 211l-7 0 0 1 -159 0 0 -1 -3 0 0 -196 169 0 0 196 0 0zm39 -75c-3,0 -5,0 -7,-2 -3,-1 -5,-2 -6,-4l0 21 -14 0 0 -55 13 0 0 7c1,-2 3,-4 6,-6 2,-1 5,-2 8,-2 5,0 9,3 13,7 3,4 5,9 4,14 1,5 -1,10 -4,14 -4,3 -8,6 -13,6l0 0zm50 -1l1 0 -2 0 0 -6c-1,2 -3,4 -5,5 -2,2 -5,2 -7,2 -4,0 -8,-1 -10,-3 -3,-3 -4,-6 -5,-9 0,-3 1,-6 3,-8 1,-2 3,-3 6,-4l0 0c1,-1 2,-1 4,-1 5,-1 9,-1 14,0 -3,-13 -21,-3 -21,-3l0 -10c6,-3 14,-4 21,-2 12,2 12,11 13,21 -1,6 -1,12 0,18l-12 0zm45 -1l0 1c0,0 -3,13 -13,16 -10,3 -14,0 -14,0l1 -10c0,0 10,2 12,-5l-1 -2 -15 -38 15 0 9 25 7 -25 14 0 -15 38z"/>
  </g>
 </g>
</svg>
