<?xml version="1.0" encoding="UTF-8"?>
<!DOCTYPE svg PUBLIC "-//W3C//DTD SVG 1.1//EN" "http://www.w3.org/Graphics/SVG/1.1/DTD/svg11.dtd">
<!-- Creator: CorelDRAW X8 -->
<svg xmlns="http://www.w3.org/2000/svg" xml:space="preserve" width="26.3613mm" height="26.3612mm" version="1.1" style="shape-rendering:geometricPrecision; text-rendering:geometricPrecision; image-rendering:optimizeQuality; fill-rule:evenodd; clip-rule:evenodd"
viewBox="0 0 2095 2095"
 xmlns:xlink="http://www.w3.org/1999/xlink">
 <defs>
  <style type="text/css">
   <![CDATA[
    .fil1 {fill:black;fill-rule:nonzero}
    .fil0 {fill:white;fill-rule:nonzero}
   ]]>
  </style>
 </defs>
 <g id="Layer_x0020_1">
  <metadata id="CorelCorpID_0Corel-Layer"/>
  <g id="_1391389880400">
   <path class="fil0" d="M1571 0l-1047 0c-290,0 -524,234 -524,524l0 1047c0,289 234,524 524,524l1047 0c289,0 524,-235 524,-524l0 -1047c0,-290 -235,-524 -524,-524z"/>
   <path class="fil1" d="M1049 676c-70,0 -138,21 -196,59 -58,39 -103,94 -130,159 -26,64 -33,135 -20,203 14,69 47,132 97,181 49,49 112,83 180,96 69,14 140,7 204,-20 64,-26 119,-72 158,-130 39,-58 60,-126 60,-195 0,-47 -9,-93 -27,-135 -18,-43 -44,-82 -76,-115 -33,-33 -72,-59 -115,-76 -43,-18 -89,-27 -135,-27l0 0zm0 582c-45,0 -90,-14 -127,-39 -38,-25 -67,-61 -85,-103 -17,-42 -22,-88 -13,-132 9,-45 31,-85 63,-118 32,-32 73,-53 117,-62 45,-9 91,-5 133,13 42,17 77,46 103,84 25,38 38,82 38,128 0,60 -24,119 -67,161 -43,43 -101,68 -162,68l0 0zm449 -596c0,16 -5,32 -14,45 -9,14 -21,24 -36,30 -15,7 -32,8 -48,5 -16,-3 -31,-11 -42,-22 -12,-12 -19,-26 -23,-42 -3,-16 -1,-33 5,-48 6,-15 17,-28 30,-37 14,-9 30,-14 46,-14 11,0 22,2 32,6 10,5 19,11 26,18 8,8 14,17 18,27 4,10 6,21 6,32l0 0zm234 83c2,-107 -38,-210 -111,-288 -78,-73 -182,-113 -288,-111 -114,-6 -454,-6 -568,0 -107,-2 -210,38 -288,111 -73,78 -113,181 -111,288 -6,113 -6,454 0,567 -2,107 38,211 111,288 78,73 181,113 288,111 114,7 454,7 568,0 107,3 210,-37 288,-111 73,-78 113,-181 111,-288 6,-113 6,-453 0,-567l0 0zm-147 689c-12,30 -29,56 -52,79 -22,23 -49,40 -79,52 -90,36 -305,27 -405,27 -100,0 -315,8 -406,-27 -29,-12 -56,-29 -79,-52 -22,-23 -40,-49 -51,-79 -36,-91 -28,-306 -28,-405 0,-100 -8,-316 28,-406 11,-29 29,-56 51,-79 23,-22 50,-40 79,-52 91,-36 306,-27 406,-27 100,0 315,-8 405,27 30,12 57,30 79,52 23,23 40,50 52,79 36,91 28,306 28,406 0,99 8,315 -28,405z"/>
  </g>
 </g>
</svg>
