<?xml version="1.0" encoding="UTF-8"?>
<!DOCTYPE svg PUBLIC "-//W3C//DTD SVG 1.1//EN" "http://www.w3.org/Graphics/SVG/1.1/DTD/svg11.dtd">
<!-- Creator: CorelDRAW X8 -->
<svg xmlns="http://www.w3.org/2000/svg" xml:space="preserve" width="25.3996mm" height="25.3992mm" version="1.1" style="shape-rendering:geometricPrecision; text-rendering:geometricPrecision; image-rendering:optimizeQuality; fill-rule:evenodd; clip-rule:evenodd"
viewBox="0 0 682 682"
 xmlns:xlink="http://www.w3.org/1999/xlink">
 <defs>
  <style type="text/css">
   <![CDATA[
    .fil1 {fill:black;fill-rule:nonzero}
    .fil0 {fill:white;fill-rule:nonzero}
   ]]>
  </style>
 </defs>
 <g id="Layer_x0020_1">
  <metadata id="CorelCorpID_0Corel-Layer"/>
  <g id="_1391505368672">
   <path class="fil0" d="M511 0l-341 0c-94,0 -170,76 -170,170l0 341c0,94 76,171 170,171l341 0c94,0 171,-77 171,-171l0 -341c0,-94 -77,-170 -171,-170z"/>
   <path class="fil1" d="M100 171c-7,0 -14,3 -18,8 -5,5 -8,11 -8,18l0 291c0,7 3,13 8,18 4,4 11,7 18,7l493 0c7,0 13,-3 18,-7 5,-5 7,-11 7,-18l0 -291c0,-7 -2,-13 -7,-18 -5,-5 -11,-8 -18,-8l-493 0zm153 42c29,0 58,10 82,28 -20,18 -33,40 -40,65l11 0c6,-21 18,-39 33,-54 16,15 27,33 33,54l11 0c-7,-25 -20,-47 -40,-64 20,-16 43,-26 67,-28 25,-3 50,1 72,11 22,11 41,28 54,49 13,21 20,45 20,70 0,24 -7,49 -21,69 -13,21 -32,38 -54,48 -23,11 -48,14 -72,11 -25,-3 -48,-13 -67,-29 21,-18 36,-41 42,-68l-10 0c-6,22 -18,43 -35,58 -17,-15 -29,-36 -35,-58l-10 0c7,26 22,50 42,67 -16,14 -35,23 -56,28 -20,4 -41,3 -61,-2 -21,-5 -39,-16 -55,-30 -15,-14 -27,-32 -34,-51 -7,-20 -9,-41 -6,-62 2,-20 10,-40 22,-57 12,-17 28,-31 47,-41 18,-9 39,-14 60,-14l0 0zm163 91c-16,0 -31,14 -31,40 0,17 8,28 24,28 4,0 8,-1 12,-2l3 -15c-4,2 -8,3 -12,3 -9,0 -13,-7 -13,-15 0,-16 8,-25 18,-25 4,0 8,2 12,4l2 -14c-5,-2 -10,-4 -15,-4l0 0zm132 2l-14 0 -3 17c-2,-2 -4,-3 -6,-4 -2,-2 -5,-2 -7,-3 -13,0 -23,15 -23,32 0,11 6,22 17,22 2,0 5,0 7,-1 2,-1 4,-3 6,-5l-1 5 13 0 11 -63zm-391 0l-10 64 13 0 8 -49 1 49 10 0 17 -49 -8 49 14 0 11 -64 -22 0 -13 39 -1 -39 -20 0zm137 4c0,0 -8,44 -8,49 0,2 0,3 1,5 0,1 1,3 2,4 1,1 2,2 3,2 2,1 3,1 5,1 3,0 6,-1 9,-2l1 0 2 -11c-1,0 -3,0 -4,0 -5,0 -5,-3 -5,-4l4 -24 7 0 2 -12 -7 0 2 -8 -14 0 0 0zm158 6c-5,0 -11,1 -16,3l-2 12c5,-2 10,-3 15,-2 5,0 8,0 8,4 0,1 0,3 0,4 0,0 -4,-1 -6,-1 -12,0 -24,5 -24,21 0,1 0,3 1,5 0,2 1,3 2,5 2,1 3,2 5,3 1,1 3,1 5,1 3,0 5,0 8,-1 2,-1 4,-3 6,-5l-1 5 12 0 5 -37c0,-3 0,-5 -1,-7 -1,-2 -2,-4 -4,-6 -2,-1 -4,-3 -6,-3 -2,-1 -5,-1 -7,-1l0 0zm-220 0c-5,0 -11,1 -16,3l-2 12c5,-2 10,-2 15,-2 5,0 8,0 8,4 1,1 0,3 0,4 0,0 -4,-1 -6,-1 -11,0 -23,5 -23,21 -1,1 0,3 0,5 1,2 1,4 3,5 1,1 2,2 4,3 2,1 4,1 6,1 2,0 5,0 7,-1 2,-1 5,-3 6,-5l0 5 12 0 5 -37c0,-3 0,-5 -1,-7 -1,-2 -3,-4 -4,-6 -2,-1 -4,-3 -7,-3 -2,-1 -4,-1 -7,-1l0 0zm42 0c-10,0 -20,4 -20,18 0,15 17,14 17,20 0,4 -5,5 -9,5 -4,0 -8,-1 -11,-2l-2 11c5,2 10,2 15,2 3,0 20,1 20,-17 0,-17 -16,-13 -16,-20 0,-3 3,-4 7,-4 2,0 9,0 9,0l2 -12c-4,0 -8,-1 -12,-1l0 0zm61 0c-13,0 -23,15 -23,31 -1,4 0,7 1,10 1,3 2,6 5,8 2,2 5,4 8,5 3,1 6,2 9,1 5,0 10,0 14,-2l3 -13c-5,2 -10,3 -15,3 -14,0 -12,-11 -12,-11l28 0c1,-4 1,-8 2,-12 0,-3 0,-5 -1,-8 -1,-2 -2,-5 -4,-6 -2,-2 -4,-4 -7,-5 -2,-1 -5,-1 -8,-1l0 0zm50 1c-6,0 -11,8 -11,8l1 -8 -12 0 -9 53 14 0c4,-22 5,-41 14,-37 1,-6 3,-11 6,-16 -1,0 -2,0 -3,0l0 0zm114 0c-6,0 -10,8 -10,8l1 -8 -13 0 -8 53 14 0c4,-22 4,-41 14,-37 1,-6 3,-11 5,-16 -1,0 -2,0 -3,0l0 0zm-164 11c8,0 7,9 7,10l-16 0c0,-1 2,-10 9,-10l0 0zm185 1c5,0 8,3 8,11 0,7 -4,17 -12,17 -4,0 -7,-4 -7,-11 0,-10 5,-17 11,-17l0 0zm-68 18c1,0 2,0 3,0l0 0c0,3 -1,14 -9,14 -1,0 -2,-1 -2,-1 -1,0 -2,0 -2,-1 -1,0 -1,-1 -1,-2 -1,0 -1,-1 -1,-2 0,-3 2,-8 12,-8l0 0zm-220 0c1,0 2,0 3,0 1,3 -1,14 -9,14 -1,0 -2,0 -2,-1 -1,0 -2,0 -2,-1 0,0 -1,-1 -1,-2 0,0 -1,-1 0,-2 0,-3 2,-8 11,-8l0 0z"/>
  </g>
 </g>
</svg>
