<?xml version="1.0" encoding="UTF-8"?>
<!DOCTYPE svg PUBLIC "-//W3C//DTD SVG 1.1//EN" "http://www.w3.org/Graphics/SVG/1.1/DTD/svg11.dtd">
<!-- Creator: CorelDRAW X8 -->
<svg xmlns="http://www.w3.org/2000/svg" xml:space="preserve" width="25.4007mm" height="25.401mm" version="1.1" style="shape-rendering:geometricPrecision; text-rendering:geometricPrecision; image-rendering:optimizeQuality; fill-rule:evenodd; clip-rule:evenodd"
viewBox="0 0 7012 7012"
 xmlns:xlink="http://www.w3.org/1999/xlink">
 <defs>
  <style type="text/css">
   <![CDATA[
    .fil1 {fill:black;fill-rule:nonzero}
    .fil0 {fill:white;fill-rule:nonzero}
   ]]>
  </style>
 </defs>
 <g id="Layer_x0020_1">
  <metadata id="CorelCorpID_0Corel-Layer"/>
  <g id="_1391602189232">
   <path class="fil0" d="M5259 0l-3506 0c-968,0 -1753,785 -1753,1753l0 3506c0,968 785,1753 1753,1753l3506 0c968,0 1753,-785 1753,-1753l0 -3506c0,-968 -785,-1753 -1753,-1753z"/>
   <path class="fil1" d="M2589 4720l154 -663c13,-48 40,-90 79,-120 38,-31 85,-48 134,-50l128 0c546,0 970,-112 1275,-336 143,-98 260,-230 340,-385 79,-154 119,-326 115,-500 6,-140 -23,-278 -85,-403 -56,-108 -141,-199 -245,-263 -119,-71 -251,-120 -388,-143 -174,-28 -350,-43 -527,-42l-932 1c-50,2 -97,20 -135,50 -39,31 -67,73 -80,120l-629 2734c-6,21 -7,43 -3,63 4,21 13,41 27,58 13,17 30,30 49,39 20,9 41,12 63,11l446 0c50,-1 97,-19 136,-50 38,-30 66,-73 78,-121l0 0zm366 -1586l134 -580c13,-47 40,-90 78,-120 39,-31 86,-48 135,-50l146 -1c136,-8 270,22 389,88 43,29 77,69 100,116 23,46 32,98 28,150 5,81 -11,162 -46,236 -36,73 -89,136 -155,184 -167,107 -365,159 -563,147l-110 0c-21,1 -42,-2 -62,-11 -19,-9 -37,-22 -50,-39 -13,-17 -22,-36 -27,-57 -4,-21 -3,-43 3,-63l0 0z"/>
   <path class="fil1" d="M5168 2702c-56,-109 -141,-200 -245,-263 -8,-5 -16,-10 -25,-15 4,6 7,11 10,17 61,125 91,263 85,403 4,174 -36,346 -115,500 -80,155 -197,288 -341,386 -304,224 -728,336 -1275,336l-127 0c-49,1 -96,19 -134,49 -39,31 -66,73 -79,120l-154 663c-12,48 -40,91 -78,121 -39,31 -87,49 -136,50l-302 0 -20 90c-6,20 -7,42 -3,63 4,21 13,40 26,57 13,17 31,30 50,39 20,9 41,13 62,12l447 0c49,-2 97,-20 135,-50 39,-31 67,-74 79,-121l154 -664c13,-47 40,-89 78,-120 39,-31 86,-48 135,-50l127 0c547,0 971,-112 1275,-336 144,-98 261,-230 340,-385 80,-154 119,-326 116,-500 6,-139 -24,-278 -85,-403l0 1z"/>
  </g>
 </g>
</svg>
