<?xml version="1.0" encoding="UTF-8"?>
<!DOCTYPE svg PUBLIC "-//W3C//DTD SVG 1.1//EN" "http://www.w3.org/Graphics/SVG/1.1/DTD/svg11.dtd">
<!-- Creator: CorelDRAW X8 -->
<svg xmlns="http://www.w3.org/2000/svg" xml:space="preserve" width="25.4005mm" height="25.4008mm" version="1.1" style="shape-rendering:geometricPrecision; text-rendering:geometricPrecision; image-rendering:optimizeQuality; fill-rule:evenodd; clip-rule:evenodd"
viewBox="0 0 1510 1510"
 xmlns:xlink="http://www.w3.org/1999/xlink">
 <defs>
  <style type="text/css">
   <![CDATA[
    .fil1 {fill:black;fill-rule:nonzero}
    .fil0 {fill:white;fill-rule:nonzero}
   ]]>
  </style>
 </defs>
 <g id="Layer_x0020_1">
  <metadata id="CorelCorpID_0Corel-Layer"/>
  <g id="_1391505367552">
   <path class="fil0" d="M1133 0l-755 0c-209,0 -378,169 -378,378l0 755c0,208 169,377 378,377l755 0c208,0 377,-169 377,-377l0 -755c0,-209 -169,-378 -377,-378z"/>
   <path class="fil1" d="M1018 599c-28,-11 -58,-16 -88,-16 -97,0 -165,49 -166,119 0,52 49,81 86,98 38,18 51,29 51,45 0,24 -31,35 -59,35 -32,1 -63,-5 -92,-19l-12 -5 -14 80c35,13 73,19 110,19 103,0 171,-48 171,-123 1,-41 -25,-72 -81,-98 -34,-17 -56,-28 -56,-45 0,-15 19,-31 56,-31 26,0 51,4 74,14l9 4 14 -78 -3 1 0 0zm252 -9l-76 0c-10,-1 -21,1 -30,6 -10,6 -17,14 -21,24l-146 330 103 0 21 -54 126 0c3,13 12,54 12,54l91 0 -80 -360 0 0zm-645 -3l98 0 -61 361 -99 0 62 -361 0 0zm-250 199l10 50 96 -246 104 0 -154 360 -104 0 -85 -305c-1,-5 -5,-9 -9,-12 -31,-16 -63,-28 -97,-36l2 -7 158 0c10,-1 20,1 28,7 8,5 14,14 17,23l34 166 0 0 0 0zm774 36l39 -100c0,1 8,-21 13,-35l7 31 23 104 -82 0 0 0z"/>
  </g>
 </g>
</svg>
